<?xml version="1.0" encoding="utf-8"?>
<!-- Generator: Adobe Illustrator 19.1.0, SVG Export Plug-In . SVG Version: 6.00 Build 0)  -->
<svg version="1.1" id="Layer_1" xmlns="http://www.w3.org/2000/svg" xmlns:xlink="http://www.w3.org/1999/xlink" x="0px" y="0px"
	 viewBox="-91.7 28.1 115.7 734.3" style="enable-background:new -91.7 28.1 115.7 734.3;" xml:space="preserve">
<style type="text/css">
	.st0{fill:#FFFFFF;}
</style>
<g>
	<path class="st0" d="M-86.3,627.4c14.2-6.4,28.3-12.9,42.5-19.3c0.6-0.3,1-0.4,1.3-0.4c1.1-0.5,2.3-0.8,3.5-1
		c0-0.2,0.1-0.3,0.1-0.5c1,0,2.4,0,3.7,0c1,0,2.1-0.2,3.1-0.2c0.4,0,0.7,0,1.1,0.1c7.3,2.9,14.6,5.9,21.9,8.8
		c1.9,0.7,3.7,1.4,5.6,2.2c0.1-0.2,0.2-0.3,0.2-0.3c-1.5-2.7-2.9-5.4-4.4-8.1c-0.2-0.4-0.8-0.6-1.2-0.8c-5.5-2.2-11.1-4.4-16.6-6.6
		c-0.4-0.2-0.7-0.4-1.2-0.6c3.4-2.7,3.6-3.1,2.7-5.1c-0.5,0.3-1,0.6-1.7,1c0.5-0.8,1.1-1.5,1-1.9c-0.1-0.5-0.9-0.9-1.4-1.3
		c3.5-3.2,3.6-3.7-0.1-7.2c1.4-0.7,2.7-1.6,2.6-3.5c0-1.8-1.3-2.7-2.8-3.4c3.8-2,3.4-5.1,0.6-6.9c0.3-0.3,0.5-0.5,0.8-0.7
		c2.2-1.7,1.9-4.6-0.6-5.8c-1.2-0.6-2.4-1-4-1.6c0.7-0.4,1-0.7,1.4-0.9c13.6-6.2,27.2-12.4,40.9-18.6c0.7-0.3,1.4-0.8,1.7-1.4
		c1.3-2.3,2.4-4.7,3.6-7.1c0.1-0.2,0.1-0.5,0.2-1c-0.6,0.2-1,0.3-1.4,0.5c-15.4,7-30.8,14-46.3,21h-0.1c-0.6,0.7-1.9,0.7-4.1,2.4
		c-4.5,3-2.5,2.5-6.2,0.8c-1,0-3.3-0.8-4.1-1.3v0.1c-8.8-3.5-17.6-6.9-26.8-10.5c0.3,0.8,0.4,1.2,0.6,1.5c1.2,2.2,2.4,4.3,3.7,6.5
		c0.3,0.6,1,1.1,1.6,1.4c5.4,2.2,10.8,4.3,16.2,6.4c0.4,0.2,0.8,0.4,1.4,0.8c-1.6,0.9-2.8,1.9-2.7,3.7c0.1,1.7,1.4,2.5,2.7,3.3
		c-3.7,2.8-3.7,4.1,0,7.2c-1.4,0.8-2.7,1.6-2.7,3.4c0,1.8,1.1,2.7,3,3.5c-1.7,0.9-3,1.7-3,3.5c0,1.9,1.1,2.8,2.8,3.5
		c-0.9,0.6-1.7,1.1-0.6,2.4c-1.8-1-2.5-0.5-2.6,1.2c0,1.4,0.8,2.6,2.2,3.2c1.1,0.5,2.2,0.9,3.6,1.5c-0.7,0.4-1.2,0.8-1.6,1
		c-13.4,6.1-26.8,12.1-40.1,18.3c-0.8,0.4-1.6,1.2-2.1,2c-1.1,2-2.1,4.1-3.1,6.1c-0.2,0.4-0.3,0.8-0.2,1.5
		C-89.8,629-88,628.2-86.3,627.4z M-37.2,567.6c-1.8-0.6-3.5-1.3-5.2-2.1C-40.8,566.3-39,567-37.2,567.6s3.6,1.3,5.5,2.1l0,0
		C-33.6,568.9-35.4,568.2-37.2,567.6z M-31.6,577.4c0.2,0.4,0.3,0.9,0.4,1.3C-31.3,578.2-31.4,577.8-31.6,577.4z M-31.2,589.8
		c0.1-0.1,0.1-0.2,0.2-0.2C-31.1,589.6-31.1,589.7-31.2,589.8c-0.1-0.8-0.1-1.8-0.3-2.7C-31.4,588-31.3,589-31.2,589.8z
		 M-41.1,592.6c0.6,0.6,1.3,1.3,1.9,1.9l0,0C-39.8,593.8-40.4,593.2-41.1,592.6z"/>
</g>
<g>
	<path class="st0" d="M-80.5,284.2c14.2-6.4,28.3-12.9,42.5-19.3c0.6-0.3,1-0.4,1.3-0.4c1.1-0.5,2.3-0.8,3.5-1
		c0-0.2,0.1-0.3,0.1-0.5c1,0,2.4,0,3.7,0c1,0,2.1-0.2,3.1-0.2c0.4,0,0.7,0,1.1,0.1c7.3,2.9,14.6,5.9,21.9,8.8
		c1.9,0.7,3.7,1.4,5.6,2.2c0.1-0.2,0.2-0.3,0.2-0.3c-1.5-2.7-2.9-5.4-4.4-8.1c-0.2-0.4-0.8-0.6-1.2-0.8c-5.5-2.2-11.1-4.4-16.6-6.6
		c-0.4-0.2-0.7-0.4-1.2-0.6c3.4-2.7,3.6-3.1,2.7-5.1c-0.5,0.3-1,0.6-1.7,1c0.5-0.8,1.1-1.5,1-1.9c-0.1-0.5-0.9-0.9-1.4-1.3
		c3.5-3.2,3.6-3.7-0.1-7.2c1.4-0.7,2.7-1.6,2.6-3.5c0-1.8-1.3-2.7-2.8-3.4c3.8-2,3.4-5.1,0.6-6.9c0.3-0.3,0.5-0.5,0.8-0.7
		c2.2-1.7,1.9-4.6-0.6-5.8c-1.2-0.6-2.4-1-4-1.6c0.7-0.4,1-0.7,1.4-0.9c13.6-6.2,27.2-12.4,40.9-18.6c0.7-0.3,1.4-0.8,1.7-1.4
		c1.3-2.3,2.4-4.7,3.6-7.1c0.1-0.2,0.1-0.5,0.2-1c-0.6,0.2-1,0.3-1.4,0.5c-15.4,7-30.8,14-46.3,21h-0.1c-0.6,0.7-1.9,0.7-4.1,2.4
		c-4.5,3-2.5,2.5-6.2,0.8c-1,0-3.3-0.8-4.1-1.3v0.1c-8.8-3.5-17.6-6.9-26.8-10.5c0.3,0.8,0.4,1.2,0.6,1.5c1.2,2.2,2.4,4.3,3.7,6.5
		c0.3,0.6,1,1.1,1.6,1.4c5.4,2.2,10.8,4.3,16.2,6.4c0.4,0.2,0.8,0.4,1.4,0.8c-1.6,0.9-2.8,1.9-2.7,3.7c0.1,1.7,1.4,2.5,2.7,3.3
		c-3.7,2.8-3.7,4.1,0,7.2c-1.4,0.8-2.7,1.6-2.7,3.4s1.1,2.7,3,3.5c-1.7,0.9-3,1.7-3,3.5c0,1.9,1.1,2.8,2.8,3.5
		c-0.9,0.6-1.7,1.1-0.6,2.4c-1.8-1-2.5-0.5-2.6,1.2c0,1.4,0.8,2.6,2.2,3.2c1.1,0.5,2.2,0.9,3.6,1.5c-0.7,0.4-1.2,0.8-1.6,1
		c-13.4,6.1-26.8,12.1-40.1,18.3c-0.8,0.4-1.6,1.2-2.1,2c-1.1,2-2.1,4.1-3.1,6.1c-0.2,0.4-0.3,0.8-0.2,1.5
		C-84.1,285.8-82.3,285-80.5,284.2z M-31.5,224.4c-1.8-0.6-3.5-1.3-5.2-2.1C-35,223.1-33.3,223.8-31.5,224.4
		c1.8,0.6,3.6,1.3,5.5,2.1l0,0C-27.9,225.7-29.7,225-31.5,224.4z M-25.9,234.2c0.2,0.4,0.3,0.9,0.4,1.3
		C-25.6,235-25.7,234.6-25.9,234.2z M-25.5,246.6c0.1-0.1,0.1-0.2,0.2-0.2C-25.4,246.4-25.4,246.5-25.5,246.6
		c-0.1-0.8-0.1-1.8-0.3-2.7C-25.6,244.8-25.6,245.7-25.5,246.6z M-35.4,249.3c0.6,0.6,1.3,1.3,1.9,1.9l0,0
		C-34.1,250.6-34.7,250-35.4,249.3z"/>
</g>
<g>
	<path class="st0" d="M-16.9,762.3H-20c0-6.4,0-12.4,0-18.1c0.1-35.7,0.2-59.3-3.6-91.2c-2-17.1-5.4-34.4-8.7-51.1
		c-3.7-19.1-7.6-38.8-9.4-58.3c-7.4-76.1,0.8-196.2,8.7-312.3c5.1-75.5,10-146.9,10.4-203h3.1c-0.4,56.2-5.3,127.6-10.4,203.2
		c-7.9,116-16,235.9-8.7,311.8c1.9,19.4,5.7,39,9.4,58c3.3,16.8,6.7,34.2,8.7,51.4c3.8,32.1,3.8,55.8,3.7,91.6
		C-16.9,749.9-16.9,755.9-16.9,762.3z"/>
</g>
<g>
	<path class="st0" d="M-48.2,762.4l-5.7-0.1c0.5-32.6,3.3-61.8,6.3-92.8c1.6-16.1,3.2-32.8,4.4-50.1c3.6-48.6,6.2-98.2,8.1-151.6
		c3.5-98.2-0.4-184.4-12-263.5c-12.5-85.5-11-146-10.5-168.8c0.1-3.2,0.1-5.7,0.1-7.4h5.7c0,1.8-0.1,4.3-0.1,7.5
		c-0.5,22.7-2,82.8,10.4,167.8c11.6,79.4,15.6,166,12.1,264.5c-1.9,53.5-4.6,103.1-8.1,151.8c-1.3,17.3-2.9,34.1-4.5,50.2
		C-44.9,700.9-47.7,730-48.2,762.4z"/>
</g>
</svg>
