<?xml version="1.0" encoding="utf-8"?>
<!-- Generator: Adobe Illustrator 19.1.0, SVG Export Plug-In . SVG Version: 6.00 Build 0)  -->
<svg version="1.1" id="Layer_1" xmlns="http://www.w3.org/2000/svg" xmlns:xlink="http://www.w3.org/1999/xlink" x="0px" y="0px"
	 viewBox="0 0 258.1 841.9" style="enable-background:new 0 0 258.1 841.9;" xml:space="preserve">
<style type="text/css">
	.st0{fill:#FFFFFF;}
</style>
<g>
	<path class="st0" d="M89.7,652.3c14.2-6.4,28.3-12.9,42.5-19.3c0.6-0.3,1-0.4,1.3-0.4c1.1-0.5,2.3-0.8,3.5-1c0-0.2,0.1-0.3,0.1-0.5
		c1,0,2.4,0,3.7,0c1,0,2.1-0.2,3.1-0.2c0.4,0,0.7,0,1.1,0.1c7.3,2.9,14.6,5.9,21.9,8.8c1.9,0.7,3.7,1.4,5.6,2.2
		c0.1-0.2,0.2-0.3,0.2-0.3c-1.5-2.7-2.9-5.4-4.4-8.1c-0.2-0.4-0.8-0.6-1.2-0.8c-5.5-2.2-11.1-4.4-16.6-6.6c-0.4-0.2-0.7-0.4-1.2-0.6
		c3.4-2.7,3.6-3.1,2.7-5.1c-0.5,0.3-1,0.6-1.7,1c0.5-0.8,1.1-1.5,1-1.9c-0.1-0.5-0.9-0.9-1.4-1.3c3.5-3.2,3.6-3.7-0.1-7.2
		c1.4-0.7,2.7-1.6,2.6-3.5c0-1.8-1.3-2.7-2.8-3.4c3.8-2,3.4-5.1,0.6-6.9c0.3-0.3,0.5-0.5,0.8-0.7c2.2-1.7,1.9-4.6-0.6-5.8
		c-1.2-0.6-2.4-1-4-1.6c0.7-0.4,1-0.7,1.4-0.9c13.6-6.2,27.2-12.4,40.9-18.6c0.7-0.3,1.4-0.8,1.7-1.4c1.3-2.3,2.4-4.7,3.6-7.1
		c0.1-0.2,0.1-0.5,0.2-1c-0.6,0.2-1,0.3-1.4,0.5c-15.4,7-30.8,14-46.3,21c0,0-0.1,0-0.1,0c-0.6,0.7-1.9,0.7-4.1,2.4
		c-4.5,3-2.5,2.5-6.2,0.8c-1,0-3.3-0.8-4.1-1.3c0,0,0,0.1,0,0.1c-8.8-3.5-17.6-6.9-26.8-10.5c0.3,0.8,0.4,1.2,0.6,1.5
		c1.2,2.2,2.4,4.3,3.7,6.5c0.3,0.6,1,1.1,1.6,1.4c5.4,2.2,10.8,4.3,16.2,6.4c0.4,0.2,0.8,0.4,1.4,0.8c-1.6,0.9-2.8,1.9-2.7,3.7
		c0.1,1.7,1.4,2.5,2.7,3.3c-3.7,2.8-3.7,4.1,0,7.2c-1.4,0.8-2.7,1.6-2.7,3.4c0,1.8,1.1,2.7,3,3.5c-1.7,0.9-3,1.7-3,3.5
		c0,1.9,1.1,2.8,2.8,3.5c-0.9,0.6-1.7,1.1-0.6,2.4c-1.8-1-2.5-0.5-2.6,1.2c0,1.4,0.8,2.6,2.2,3.2c1.1,0.5,2.2,0.9,3.6,1.5
		c-0.7,0.4-1.2,0.8-1.6,1c-13.4,6.1-26.8,12.1-40.1,18.3c-0.8,0.4-1.6,1.2-2.1,2c-1.1,2-2.1,4.1-3.1,6.1c-0.2,0.4-0.3,0.8-0.2,1.5
		C86.2,653.9,88,653.1,89.7,652.3z M138.8,592.5c-1.8-0.6-3.5-1.3-5.2-2.1C135.2,591.2,137,591.9,138.8,592.5
		c1.8,0.6,3.6,1.3,5.5,2.1c0,0,0,0,0,0C142.4,593.8,140.6,593.1,138.8,592.5z M144.4,602.3c0.2,0.4,0.3,0.9,0.4,1.3
		C144.7,603.1,144.6,602.7,144.4,602.3z M144.8,614.7c0.1-0.1,0.1-0.2,0.2-0.2C144.9,614.5,144.9,614.6,144.8,614.7
		c-0.1-0.8-0.1-1.8-0.3-2.7C144.6,612.9,144.7,613.9,144.8,614.7z M134.9,617.5c0.6,0.6,1.3,1.3,1.9,1.9v0
		C136.2,618.7,135.6,618.1,134.9,617.5z"/>
</g>
<g>
	<path class="st0" d="M95.5,309.1c14.2-6.4,28.3-12.9,42.5-19.3c0.6-0.3,1-0.4,1.3-0.4c1.1-0.5,2.3-0.8,3.5-1c0-0.2,0.1-0.3,0.1-0.5
		c1,0,2.4,0,3.7,0c1,0,2.1-0.2,3.1-0.2c0.4,0,0.7,0,1.1,0.1c7.3,2.9,14.6,5.9,21.9,8.8c1.9,0.7,3.7,1.4,5.6,2.2
		c0.1-0.2,0.2-0.3,0.2-0.3c-1.5-2.7-2.9-5.4-4.4-8.1c-0.2-0.4-0.8-0.6-1.2-0.8c-5.5-2.2-11.1-4.4-16.6-6.6c-0.4-0.2-0.7-0.4-1.2-0.6
		c3.4-2.7,3.6-3.1,2.7-5.1c-0.5,0.3-1,0.6-1.7,1c0.5-0.8,1.1-1.5,1-1.9c-0.1-0.5-0.9-0.9-1.4-1.3c3.5-3.2,3.6-3.7-0.1-7.2
		c1.4-0.7,2.7-1.6,2.6-3.5c0-1.8-1.3-2.7-2.8-3.4c3.8-2,3.4-5.1,0.6-6.9c0.3-0.3,0.5-0.5,0.8-0.7c2.2-1.7,1.9-4.6-0.6-5.8
		c-1.2-0.6-2.4-1-4-1.6c0.7-0.4,1-0.7,1.4-0.9c13.6-6.2,27.2-12.4,40.9-18.6c0.7-0.3,1.4-0.8,1.7-1.4c1.3-2.3,2.4-4.7,3.6-7.1
		c0.1-0.2,0.1-0.5,0.2-1c-0.6,0.2-1,0.3-1.4,0.5c-15.4,7-30.8,14-46.3,21c0,0-0.1,0-0.1,0c-0.6,0.7-1.9,0.7-4.1,2.4
		c-4.5,3-2.5,2.5-6.2,0.8c-1,0-3.3-0.8-4.1-1.3c0,0,0,0.1,0,0.1c-8.8-3.5-17.6-6.9-26.8-10.5c0.3,0.8,0.4,1.2,0.6,1.5
		c1.2,2.2,2.4,4.3,3.7,6.5c0.3,0.6,1,1.1,1.6,1.4c5.4,2.2,10.8,4.3,16.2,6.4c0.4,0.2,0.8,0.4,1.4,0.8c-1.6,0.9-2.8,1.9-2.7,3.7
		c0.1,1.7,1.4,2.5,2.7,3.3c-3.7,2.8-3.7,4.1,0,7.2c-1.4,0.8-2.7,1.6-2.7,3.4c0,1.8,1.1,2.7,3,3.5c-1.7,0.9-3,1.7-3,3.5
		c0,1.9,1.1,2.8,2.8,3.5c-0.9,0.6-1.7,1.1-0.6,2.4c-1.8-1-2.5-0.5-2.6,1.2c0,1.4,0.8,2.6,2.2,3.2c1.1,0.5,2.2,0.9,3.6,1.5
		c-0.7,0.4-1.2,0.8-1.6,1c-13.4,6.1-26.8,12.1-40.1,18.3c-0.8,0.4-1.6,1.2-2.1,2c-1.1,2-2.1,4.1-3.1,6.1c-0.2,0.4-0.3,0.8-0.2,1.5
		C91.9,310.7,93.7,309.9,95.5,309.1z M144.5,249.3c-1.8-0.6-3.5-1.3-5.2-2.1C141,248,142.7,248.7,144.5,249.3
		c1.8,0.6,3.6,1.3,5.5,2.1c0,0,0,0,0,0C148.1,250.6,146.3,249.9,144.5,249.3z M150.1,259.1c0.2,0.4,0.3,0.9,0.4,1.3
		C150.4,259.9,150.3,259.5,150.1,259.1z M150.5,271.5c0.1-0.1,0.1-0.2,0.2-0.2C150.6,271.3,150.6,271.4,150.5,271.5
		c-0.1-0.8-0.1-1.8-0.3-2.7C150.4,269.7,150.4,270.6,150.5,271.5z M140.6,274.2c0.6,0.6,1.3,1.3,1.9,1.9v0
		C141.9,275.5,141.3,274.9,140.6,274.2z"/>
</g>
<g>
	<path class="st0" d="M159.1,787.2H156c0-6.4,0-12.4,0-18.1c0.1-35.7,0.2-59.3-3.6-91.2c-2-17.1-5.4-34.4-8.7-51.1
		c-3.7-19.1-7.6-38.8-9.4-58.3c-7.4-76.1,0.8-196.2,8.7-312.3c5.1-75.5,10-146.9,10.4-203l3.1,0c-0.4,56.2-5.3,127.6-10.4,203.2
		c-7.9,116-16,235.9-8.7,311.8c1.9,19.4,5.7,39,9.4,58c3.3,16.8,6.7,34.2,8.7,51.4c3.8,32.1,3.8,55.8,3.7,91.6
		C159.1,774.8,159.1,780.8,159.1,787.2z"/>
</g>
<g>
	<path class="st0" d="M127.8,787.3l-5.7-0.1c0.5-32.6,3.3-61.8,6.3-92.8c1.6-16.1,3.2-32.8,4.4-50.1c3.6-48.6,6.2-98.2,8.1-151.6
		c3.5-98.2-0.4-184.4-12-263.5c-12.5-85.5-11-146-10.5-168.8c0.1-3.2,0.1-5.7,0.1-7.4h5.7c0,1.8-0.1,4.3-0.1,7.5
		c-0.5,22.7-2,82.8,10.4,167.8c11.6,79.4,15.6,166,12.1,264.5c-1.9,53.5-4.6,103.1-8.1,151.8c-1.3,17.3-2.9,34.1-4.5,50.2
		C131.1,725.8,128.3,754.9,127.8,787.3z"/>
</g>
</svg>
